<svg width="113" height="69" viewBox="0 0 113 69" fill="none" xmlns="http://www.w3.org/2000/svg">
<path d="M56.0935 59.3539C55.8862 59.3539 55.6789 59.271 55.5338 59.1155L33.9647 37.08C31.5808 34.4577 30.2852 31.0995 30.2852 27.6066C30.2852 19.8122 36.6077 13.469 44.402 13.469C49.0869 13.469 53.4401 15.7907 56.0624 19.6049C58.6743 15.7803 63.0379 13.4482 67.7124 13.4482C71.4956 13.4482 75.0403 14.9097 77.7041 17.5734C80.3782 20.2372 81.85 23.7819 81.85 27.5547C81.85 31.0477 80.5544 34.4059 78.2016 37.0178C78.1809 37.0385 56.6532 59.1259 56.6532 59.1259C56.5081 59.271 56.3112 59.3643 56.0935 59.3643V59.3539ZM44.4124 15.0237C41.0438 15.0237 37.8826 16.34 35.5194 18.7136C33.1458 21.0871 31.8399 24.2484 31.8502 27.6066C31.8502 30.716 33.0111 33.701 35.1152 36.0228L56.1039 57.4675L77.0615 35.9606C79.1552 33.6389 80.2953 30.6538 80.2953 27.5547C80.2953 24.1965 78.979 21.0456 76.6054 18.6721C74.2319 16.2986 71.081 15.003 67.7228 15.003C63.1623 15.003 58.9645 17.4801 56.7465 21.4602C56.6117 21.709 56.3526 21.8541 56.0728 21.8541C55.7929 21.8541 55.5338 21.6986 55.3887 21.4602C53.1603 17.4905 48.9625 15.0237 44.4227 15.0237H44.4124Z" fill="#4C4C4C"/>
<path d="M32.7319 20.6103C32.4521 20.6103 32.1722 20.4548 32.0375 20.1853L26.9276 10.2144C26.4612 9.29193 26.3679 8.24509 26.6892 7.26043C27.0106 6.27578 27.6843 5.47769 28.6067 5.00091C29.5396 4.52413 30.5968 4.44121 31.5918 4.76252C32.5868 5.08383 33.3953 5.77827 33.872 6.70073L38.1942 15.1377C38.3911 15.5212 38.2356 15.9876 37.8521 16.1845C37.4686 16.3815 37.0022 16.226 36.8053 15.8425L32.4832 7.40554C32.193 6.84584 31.7058 6.43125 31.1046 6.23432C30.5035 6.03739 29.8609 6.08921 29.3012 6.37943C28.7518 6.65928 28.3372 7.14642 28.1507 7.72685C27.9641 8.31764 28.0159 8.93953 28.2958 9.49923L33.4056 19.4702C33.6026 19.8537 33.4471 20.3201 33.0636 20.517C32.9496 20.5792 32.8252 20.5999 32.7112 20.5999L32.7319 20.6103Z" fill="#4C4C4C"/>
<path d="M26.5232 24.3309C26.2434 24.3309 25.9635 24.1754 25.8288 23.906L17.5784 7.84052C16.4694 5.67428 17.3297 3.02089 19.4855 1.91186C20.5324 1.37289 21.7243 1.27961 22.8437 1.64237C23.9631 2.00514 24.8752 2.7825 25.4142 3.81898L28.5029 9.84093C28.6998 10.2244 28.5444 10.6908 28.1609 10.8878C27.7774 11.0847 27.311 10.9292 27.114 10.5457L24.0253 4.52379C23.6833 3.85008 23.0925 3.35257 22.367 3.11417C21.6414 2.87578 20.8641 2.93797 20.1903 3.29038C18.7911 4.00555 18.2314 5.7261 18.9569 7.12535L27.2073 23.1908C27.4042 23.5743 27.2488 24.0407 26.8756 24.2376C26.7616 24.2998 26.6372 24.3205 26.5232 24.3205V24.3309Z" fill="#4C4C4C"/>
<path d="M20.0458 27.6579C19.7659 27.6579 19.4861 27.5024 19.3513 27.2329L8.8518 6.7832C8.31283 5.73636 8.21955 4.54441 8.58231 3.42501C8.94508 2.30561 9.72244 1.39351 10.7589 0.854539C12.9148 -0.254494 15.5786 0.605784 16.6876 2.76166L20.1391 9.49878C20.336 9.88228 20.1805 10.3487 19.8074 10.5456C19.4239 10.7426 18.9575 10.5871 18.7605 10.2036L15.3091 3.46647C14.5939 2.06722 12.8733 1.51789 11.4741 2.23306C10.0748 2.94823 9.52551 4.66879 10.2407 6.06803L20.7402 26.5178C20.9372 26.9013 20.7817 27.3677 20.4085 27.5646C20.2945 27.6268 20.1702 27.6475 20.0561 27.6475L20.0458 27.6579Z" fill="#4C4C4C"/>
<path d="M19.443 42.4798C19.1631 42.4798 18.8833 42.3243 18.7485 42.0549L4.21709 13.6968C3.10806 11.5305 3.96833 8.87715 6.12421 7.76811C8.29045 6.65908 10.9438 7.51936 12.0529 9.67524L14.7892 15.0131C14.9861 15.3966 14.8306 15.863 14.4471 16.06C14.0636 16.2569 13.5972 16.1014 13.4003 15.7179L10.664 10.38C10.322 9.70633 9.73116 9.20882 9.00562 8.97043C8.28009 8.73204 7.50273 8.79423 6.82902 9.14663C5.42977 9.8618 4.88043 11.5824 5.59561 12.9816L20.127 41.3397C20.324 41.7232 20.1685 42.1896 19.785 42.3865C19.671 42.4487 19.5466 42.4695 19.4326 42.4695L19.443 42.4798Z" fill="#4C4C4C"/>
<path d="M56.0938 68.9926H35.1673C34.8771 68.9926 34.6076 68.8268 34.4729 68.5677L29.0935 58.0785C28.5546 57.0213 27.5699 56.2958 26.4712 56.1507C20.9883 55.394 15.5675 51.0512 10.3229 46.8534C8.15664 45.1121 5.91784 43.319 3.76196 41.868C3.29555 41.4845 2.84986 41.1735 2.40417 40.8626C1.04639 39.9194 -0.497968 38.8414 0.134285 37.2142C0.155014 37.1623 0.175744 37.1105 0.206838 37.0691C0.88055 36.0533 1.88593 35.39 3.12971 35.1516C4.42531 34.9028 6.56046 35.0065 9.40041 36.955C11.9294 38.6238 16.7283 41.018 19.4543 41.0802C19.9621 41.1321 20.5944 41.0491 21.3303 40.9559C24.7299 40.5309 30.4099 39.8365 37.0019 47.807C37.2713 48.1387 37.2299 48.6258 36.8982 48.9057C36.5665 49.1751 36.0794 49.1337 35.7995 48.802C29.7569 41.4845 24.8025 42.096 21.5169 42.5002C20.6877 42.6039 19.9725 42.6868 19.361 42.635C16.2101 42.5728 11.038 39.909 8.52977 38.2506C6.65374 36.9654 4.8399 36.4161 3.43029 36.6856C2.64257 36.841 1.99995 37.2453 1.56463 37.8568C1.48171 38.2921 2.19688 38.8414 3.29555 39.5981C3.76196 39.9194 4.24911 40.2614 4.6948 40.6449C6.84031 42.0856 9.09983 43.8995 11.2972 45.6615C16.3759 49.7348 21.6205 53.9429 26.6785 54.6374C28.2747 54.855 29.6947 55.8915 30.472 57.3944L35.6337 67.469H55.3165V58.6175C55.3165 58.1925 55.6689 57.8401 56.0938 57.8401C56.5188 57.8401 56.8712 58.1925 56.8712 58.6175V68.2464C56.8712 68.6713 56.5188 69.0237 56.0938 69.0237V68.9926Z" fill="#4C4C4C"/>
<path d="M79.3946 20.6095C79.2702 20.6095 79.1562 20.5784 79.0422 20.5265C78.6587 20.3296 78.5136 19.8632 78.7002 19.4797L83.81 9.50875C84.0899 8.95942 84.1417 8.32717 83.9551 7.73637C83.7685 7.14558 83.354 6.6688 82.8046 6.38895C82.2449 6.09873 81.6023 6.04691 81.0011 6.24384C80.4 6.44077 79.9128 6.85536 79.6226 7.41506L75.2901 15.852C75.0932 16.2355 74.6268 16.3806 74.2433 16.194C73.8598 15.9971 73.7147 15.5307 73.9013 15.1472L78.2234 6.71026C78.7002 5.77742 79.5086 5.09335 80.5036 4.77204C81.4987 4.45073 82.5559 4.53365 83.4887 5.01043C84.4112 5.48721 85.0952 6.2853 85.4062 7.26996C85.7275 8.25461 85.6342 9.30146 85.1678 10.2239L80.0579 20.1949C79.9232 20.4643 79.6434 20.6198 79.3635 20.6198L79.3946 20.6095Z" fill="#4C4C4C"/>
<path d="M85.6022 24.3308C85.4779 24.3308 85.3638 24.2997 85.2498 24.2479C84.8663 24.051 84.7212 23.5845 84.9182 23.201L93.1685 7.13561C93.8837 5.73636 93.3344 4.0158 91.9351 3.30063C91.2614 2.95859 90.4841 2.8964 89.7585 3.12443C89.033 3.36282 88.4422 3.86033 88.0898 4.53404L85.0011 10.556C84.8042 10.9395 84.3377 11.0846 83.9542 10.898C83.5707 10.7011 83.4256 10.2347 83.6122 9.85118L86.7009 3.82924C87.2399 2.78239 88.152 2.0154 89.2714 1.65263C90.3908 1.28986 91.5931 1.38314 92.6296 1.92211C94.7958 3.03115 95.6457 5.6949 94.5367 7.85078L86.2863 23.9162C86.1516 24.1857 85.8717 24.3412 85.5919 24.3412L85.6022 24.3308Z" fill="#4C4C4C"/>
<path d="M92.0804 27.6577C91.9561 27.6577 91.8421 27.6266 91.728 27.5748C91.3445 27.3779 91.1994 26.9115 91.3964 26.528L101.896 6.07823C102.611 4.67898 102.062 2.95843 100.663 2.24326C99.9888 1.90122 99.2218 1.83903 98.4859 2.06705C97.7604 2.30545 97.1696 2.80296 96.8172 3.47667L93.3657 10.2138C93.1688 10.5973 92.7023 10.7528 92.3188 10.5558C91.9353 10.3589 91.7902 9.89248 91.9768 9.50898L95.4283 2.77186C95.9672 1.72502 96.8794 0.958022 97.9988 0.595254C99.1182 0.232487 100.31 0.32577 101.357 0.864739C102.404 1.40371 103.171 2.31581 103.534 3.43521C103.896 4.55461 103.803 5.74656 103.264 6.7934L92.7645 27.2431C92.6298 27.5126 92.3499 27.6681 92.0701 27.6681L92.0804 27.6577Z" fill="#4C4C4C"/>
<path d="M92.6815 42.4794C92.5572 42.4794 92.4432 42.4483 92.3291 42.3965C91.9456 42.1996 91.8005 41.7331 91.9871 41.3496L106.519 12.9916C106.861 12.3178 106.923 11.5509 106.695 10.815C106.456 10.0894 105.959 9.49863 105.285 9.15659C104.611 8.81455 103.834 8.75236 103.109 8.98039C102.383 9.20841 101.792 9.71629 101.45 10.39L98.7139 15.7279C98.5169 16.1114 98.0505 16.2565 97.667 16.0699C97.2835 15.873 97.1384 15.4066 97.325 15.0231L100.061 9.68519C100.59 8.63835 101.512 7.87135 102.632 7.50858C103.751 7.14582 104.943 7.2391 105.99 7.77807C108.156 8.8871 109.006 11.5405 107.897 13.7067L93.3656 42.0648C93.2309 42.3343 92.951 42.4898 92.6712 42.4898L92.6815 42.4794Z" fill="#4C4C4C"/>
<path d="M76.9581 68.9927H56.0938C55.6688 68.9927 55.3164 68.6403 55.3164 68.2154C55.3164 67.7904 55.6688 67.438 56.0938 67.438H76.4814L81.643 57.3634C82.41 55.8502 83.83 54.8241 85.4262 54.6064C90.4842 53.912 95.7288 49.7039 100.808 45.6305C102.995 43.8788 105.264 42.0546 107.472 40.5725C107.856 40.2408 108.343 39.9091 108.809 39.5775C109.897 38.8208 110.623 38.2715 110.54 37.8362C110.105 37.2246 109.462 36.8204 108.674 36.665C107.265 36.3851 105.451 36.9448 103.585 38.2197C101.067 39.8884 95.8946 42.5418 92.6919 42.6143C92.1322 42.6662 91.417 42.5832 90.5878 42.4796C87.3022 42.0754 82.3478 41.4638 76.3052 48.7814C76.0357 49.1131 75.5382 49.1545 75.2065 48.885C74.8748 48.6156 74.8334 48.118 75.1028 47.7864C81.6845 39.8158 87.3748 40.5103 90.7744 40.9352C91.5103 41.0285 92.1529 41.1011 92.5986 41.0596C95.3867 40.9974 100.186 38.6032 102.725 36.9241C105.555 34.9859 107.69 34.8822 108.985 35.131C110.229 35.3693 111.235 36.0327 111.908 37.0484C111.939 37.0899 111.96 37.1417 111.981 37.1936C112.613 38.8208 111.069 39.8884 109.711 40.842C109.276 41.1529 108.82 41.4638 108.415 41.7955C106.197 43.2984 103.958 45.0915 101.792 46.8328C96.5476 51.0306 91.1268 55.3838 85.6438 56.13C84.5452 56.2855 83.5709 57.0007 83.0319 58.0579L77.6526 68.5471C77.5178 68.8062 77.2484 68.972 76.9581 68.972V68.9927Z" fill="#4C4C4C"/>
</svg>
