<svg width="142" height="44" viewBox="0 0 142 44" fill="none" xmlns="http://www.w3.org/2000/svg">
<path d="M12.348 34.36C18.252 34.36 22.248 30.868 22.248 25.396V25.108H19.512V25.396C19.512 29.644 17.244 31.876 12.204 31.876C6.552 31.876 4.068 28.636 4.068 21.94C4.068 15.244 6.552 12.004 12.204 12.004C17.244 12.004 19.512 14.236 19.512 18.484V18.772H22.248V18.484C22.248 13.012 18.252 9.52 12.348 9.52C5.508 9.52 1.368 14.416 1.368 21.94C1.368 29.464 5.508 34.36 12.348 34.36ZM32.3362 34.36C35.7202 34.36 37.9882 32.74 39.0322 30.688L39.2122 30.724V34H41.5522V22.876C41.5522 18.916 39.3922 15.856 34.6402 15.856C30.0322 15.856 27.1882 18.808 27.1882 22.516V22.804H29.6722V22.264C29.6722 19.42 31.1842 18.16 34.4242 18.16C37.7722 18.16 39.1042 19.42 39.1042 22.552V23.848L32.8402 24.712C28.9522 25.252 26.6482 26.62 26.6482 29.716C26.6482 32.704 29.0962 34.36 32.3362 34.36ZM29.1682 29.536C29.1682 27.628 30.2122 27.052 33.0562 26.656L39.1042 25.792V26.404C39.1042 30.616 36.1162 32.2 33.0562 32.2C30.3202 32.2 29.1682 31.372 29.1682 29.536ZM49.9033 34V23.74C49.9033 19.78 51.8113 18.124 55.3393 18.124C58.9753 18.124 60.2353 19.816 60.2353 23.668V34H62.7913V23.092C62.7913 18.808 60.7033 15.856 56.1313 15.856C52.4593 15.856 50.4433 18.016 49.7593 19.888H49.6513V16.216H47.3113V34H49.9033ZM76.3673 34.36C81.5513 34.36 84.8633 30.508 84.8633 25.108C84.8633 19.708 81.5513 15.856 76.3673 15.856C71.1473 15.856 67.7273 19.708 67.7273 25.108C67.7273 30.508 71.1473 34.36 76.3673 34.36ZM76.3673 32.056C72.0113 32.056 70.2833 29.536 70.2833 25.108C70.2833 20.68 72.0113 18.196 76.3673 18.196C80.6513 18.196 82.3433 20.68 82.3433 25.108C82.3433 29.536 80.6513 32.056 76.3673 32.056ZM92.3861 40.264V30.616C93.1781 32.56 95.3741 34.36 98.7941 34.36C103.654 34.36 106.282 30.724 106.282 25.144C106.282 19.492 103.51 15.856 98.5061 15.856C95.1581 15.856 93.0341 17.404 92.2421 19.672H92.1341V16.216H89.7941V40.264H92.3861ZM92.3861 26.656V23.596C92.3861 19.924 94.5461 18.088 98.0741 18.088C101.566 18.088 103.69 19.672 103.69 25.144C103.69 30.544 101.53 32.128 98.0741 32.128C94.5461 32.128 92.3861 30.292 92.3861 26.656ZM112.746 40.12C114.69 40.12 116.382 39.544 117.534 36.844L126.21 16.216H123.402L119.478 26.116L117.714 30.472H117.498L115.626 26.116L111.45 16.216H108.642L116.274 33.748L115.266 36.052C114.618 37.456 114.078 37.78 112.458 37.78H110.442V39.868C110.946 39.976 111.882 40.12 112.746 40.12Z" fill="#0D0D0D"/>
<circle cx="139.5" cy="31.5" r="2.5" fill="#0D0D0D"/>
</svg>
